<svg width="24" height="24" fill="none" xmlns="http://www.w3.org/2000/svg"><path fill-rule="evenodd" clip-rule="evenodd" d="M12 24c6.627 0 12-5.373 12-12S18.627 0 12 0 0 5.373 0 12s5.373 12 12 12zm2.016-18.251a54.1 54.1 0 00-1.371-.015h-1.289c-.457 0-.914.004-1.37.015l-.122.004-.446.019c-.668.031-1.122.136-1.522.291a3.068 3.068 0 00-1.109.723c-.32.312-.567.691-.724 1.11-.155.4-.26.854-.292 1.521v.007l-.018.44-.005.12c-.01.458-.015.915-.014 1.372v1.288c0 .457.005.914.016 1.371l.003.122c.006.148.012.297.02.446.03.667.136 1.122.29 1.521.158.418.405.797.724 1.11.312.32.691.566 1.11.723.399.155.854.26 1.52.291.15.008.298.014.447.02l.121.003c.457.012.915.016 1.372.015h1.288a50.847 50.847 0 001.371-.015l.122-.004.446-.019c.667-.031 1.121-.136 1.52-.291a3.08 3.08 0 001.11-.723 3.06 3.06 0 00.723-1.11c.154-.4.26-.854.292-1.521v-.008l.02-.438.003-.122c.011-.457.016-.914.014-1.37v-1.289a48.293 48.293 0 00-.015-1.371l-.004-.122a32.55 32.55 0 00-.018-.439v-.007c-.032-.667-.137-1.122-.292-1.521a3.076 3.076 0 00-.722-1.11 3.055 3.055 0 00-1.11-.723c-.4-.155-.854-.26-1.521-.291l-.015-.001-.431-.018-.122-.004zM9.785 9.785a3.133 3.133 0 114.43 4.43 3.133 3.133 0 01-4.43-4.43zm2.935.478a1.88 1.88 0 10-1.439 3.474 1.88 1.88 0 001.439-3.474zm2.017-2.106a.783.783 0 111.107 1.107.783.783 0 01-1.107-1.107z" fill="#151515"/></svg>