<svg width="25" height="25" fill="none" xmlns="http://www.w3.org/2000/svg"><path id="Subtract" fill-rule="evenodd" clip-rule="evenodd" d="M12.362 24.5c6.628 0 12-5.373 12-12s-5.372-12-12-12c-6.627 0-12 5.373-12 12s5.373 12 12 12zM14.38 6.248a54.1 54.1 0 00-1.372-.014H11.72c-.457-.001-.914.004-1.371.015l-.122.003-.446.02c-.667.03-1.121.136-1.521.29a3.068 3.068 0 00-1.11.723 3.082 3.082 0 00-.724 1.11c-.154.4-.26.854-.291 1.522v.007c-.008.163-.014.3-.019.439l-.004.122c-.011.456-.016.913-.014 1.37v1.289c-.001.457.004.914.016 1.37l.003.122c.005.149.012.298.019.446.03.668.136 1.123.291 1.522.157.418.404.797.723 1.11a3.08 3.08 0 001.11.723c.4.154.854.26 1.521.29.149.008.298.015.446.02l.122.004c.457.011.914.016 1.371.014h1.288a50.847 50.847 0 001.372-.015l.121-.003c.149-.006.298-.012.446-.02.667-.03 1.122-.136 1.521-.29a3.08 3.08 0 001.11-.723c.32-.313.566-.692.723-1.11.154-.4.26-.854.292-1.522.007-.166.014-.305.019-.446l.003-.121c.011-.457.016-.914.015-1.371v-1.289a48.56 48.56 0 00-.015-1.37l-.004-.122a47.12 47.12 0 00-.018-.44v-.006c-.032-.668-.137-1.122-.292-1.522a3.075 3.075 0 00-.723-1.11 3.055 3.055 0 00-1.11-.722c-.4-.155-.854-.26-1.52-.292h-.016l-.43-.019-.122-.004zm-4.231 4.036a3.133 3.133 0 114.43 4.431 3.133 3.133 0 01-4.43-4.43zm2.934.479a1.878 1.878 0 00-2.598 1.737 1.88 1.88 0 102.598-1.737zM15.1 8.656a.783.783 0 111.108 1.108.783.783 0 01-1.108-1.108z" fill="#fff"/></svg>