<svg width="24" height="24" fill="none" xmlns="http://www.w3.org/2000/svg"><path id="Vector" d="M13.234 0c1.35.004 2.035.01 2.626.028l.233.008c.269.01.534.022.854.036 1.277.06 2.148.262 2.913.558a5.851 5.851 0 012.126 1.384 5.89 5.89 0 011.383 2.126c.297.764.498 1.635.558 2.913.015.32.027.585.037.855l.007.232c.018.59.025 1.276.027 2.626l.002.895v1.572c.002.875-.007 1.75-.028 2.625l-.007.233c-.01.27-.022.535-.036.854-.06 1.279-.264 2.148-.56 2.914a5.86 5.86 0 01-1.383 2.126 5.899 5.899 0 01-2.126 1.384c-.765.296-1.636.498-2.913.558-.284.013-.57.025-.854.036l-.233.007c-.591.017-1.276.025-2.626.028h-2.466a94.262 94.262 0 01-2.627-.027l-.233-.007c-.285-.01-.57-.023-.854-.037-1.277-.06-2.148-.262-2.914-.558-.8-.3-1.526-.773-2.125-1.384A5.885 5.885 0 01.631 19.86c-.297-.764-.498-1.636-.558-2.914a60.304 60.304 0 01-.036-.854l-.006-.233A94.853 94.853 0 010 13.233v-2.467A92 92 0 01.026 8.14l.008-.232c.01-.27.022-.536.036-.855.06-1.278.262-2.148.558-2.913a5.856 5.856 0 011.388-2.126A5.876 5.876 0 014.14.63C4.906.334 5.776.132 7.054.072c.32-.014.585-.026.854-.036l.233-.007c.875-.022 1.75-.03 2.626-.028L13.234 0zM12 6a6 6 0 100 12 6 6 0 000-12zm0 2.4a3.6 3.6 0 110 7.2 3.6 3.6 0 010-7.2m6.3-4.2a1.5 1.5 0 100 3 1.5 1.5 0 000-3z" fill="#fff"/></svg>