<svg width="24" height="25" fill="none" xmlns="http://www.w3.org/2000/svg"><path id="Subtract" fill-rule="evenodd" clip-rule="evenodd" d="M12 24.5c6.627 0 12-5.373 12-12S18.627.5 12 .5 0 5.873 0 12.5s5.373 12 12 12zm2.67-18.787c0 .782.284 1.538.799 2.126 1.025 1.184 2.443 1.116 2.443 1.116v2.33a5.543 5.543 0 01-3.242-1.04v4.743a4.295 4.295 0 01-4.29 4.298c-2.21 0-4.292-1.787-4.292-4.298 0-2.579 2.278-4.6 4.88-4.253v2.383a1.957 1.957 0 00-2.542 1.87c0 1.086.89 1.96 1.96 1.96a1.955 1.955 0 001.954-1.885v-9.35h2.33z" fill="#fff"/></svg>