<svg width="10" height="19" viewBox="0 0 10 19" fill="none" xmlns="http://www.w3.org/2000/svg">
<g id="Layer 125">
<path id="Vector" d="M9.70994 8.57021C9.80367 8.66318 9.87806 8.77378 9.92883 8.89564C9.9796 9.0175 10.0057 9.1482 10.0057 9.28021C10.0057 9.41223 9.9796 9.54293 9.92883 9.66479C9.87806 9.78665 9.80367 9.89725 9.70994 9.99021L1.70994 17.9902C1.61698 18.0839 1.50638 18.1583 1.38452 18.2091C1.26266 18.2599 1.13195 18.286 0.999939 18.286C0.867927 18.286 0.737221 18.2599 0.615362 18.2091C0.493503 18.1583 0.382902 18.0839 0.289939 17.9902C0.196211 17.8973 0.121816 17.7866 0.0710478 17.6648C0.0202791 17.5429 -0.00585938 17.4122 -0.00585938 17.2802C-0.00585938 17.1482 0.0202791 17.0175 0.0710478 16.8956C0.121816 16.7738 0.196211 16.6632 0.289939 16.5702L7.58994 9.28021L0.289939 1.99021C0.101635 1.80191 -0.00415278 1.54652 -0.00415277 1.28021C-0.00415277 1.01391 0.101635 0.758518 0.289939 0.570215C0.478243 0.381911 0.733637 0.276123 0.999939 0.276123C1.26624 0.276123 1.52164 0.381911 1.70994 0.570215L9.70994 8.57021Z" fill="white"/>
</g>
</svg>
