<svg width="10" height="19" viewBox="0 0 10 19" fill="none" xmlns="http://www.w3.org/2000/svg">
<g id="Layer 125">
<path id="Vector" d="M9.70994 16.5702C9.80367 16.6632 9.87806 16.7738 9.92883 16.8956C9.9796 17.0175 10.0057 17.1482 10.0057 17.2802C10.0057 17.4122 9.9796 17.5429 9.92883 17.6648C9.87806 17.7866 9.80367 17.8973 9.70994 17.9902C9.61698 18.0839 9.50638 18.1583 9.38452 18.2091C9.26266 18.2599 9.13195 18.286 8.99994 18.286C8.86793 18.286 8.73722 18.2599 8.61536 18.2091C8.4935 18.1583 8.3829 18.0839 8.28994 17.9902L0.289939 9.99022C0.196211 9.89725 0.121816 9.78665 0.0710478 9.66479C0.0202791 9.54293 -0.00585938 9.41223 -0.00585938 9.28021C-0.00585938 9.1482 0.0202791 9.0175 0.0710478 8.89564C0.121816 8.77378 0.196211 8.66318 0.289939 8.57022L8.28994 0.570215C8.47824 0.381911 8.73364 0.276123 8.99994 0.276123C9.1318 0.276123 9.26237 0.302095 9.38419 0.352555C9.50601 0.403015 9.6167 0.476976 9.70994 0.570215C9.80318 0.663453 9.87714 0.774144 9.9276 0.895966C9.97806 1.01779 10.004 1.14836 10.004 1.28021C10.004 1.41207 9.97806 1.54264 9.9276 1.66446C9.87714 1.78629 9.80318 1.89698 9.70994 1.99021L2.40994 9.28021L9.70994 16.5702Z" fill="white"/>
</g>
</svg>
