<svg width="20" height="21" viewBox="0 0 20 21" fill="none" xmlns="http://www.w3.org/2000/svg">
<path id="Vector" d="M10 0.219727C15.523 0.219727 20 4.69673 20 10.2197C20 15.7427 15.523 20.2197 10 20.2197C4.477 20.2197 0 15.7427 0 10.2197C0 4.69673 4.477 0.219727 10 0.219727ZM10 4.21973C9.73478 4.21973 9.48043 4.32508 9.29289 4.51262C9.10536 4.70016 9 4.95451 9 5.21973V10.2197C9.00006 10.4849 9.10545 10.7392 9.293 10.9267L12.293 13.9267C12.4816 14.1089 12.7342 14.2097 12.9964 14.2074C13.2586 14.2051 13.5094 14.1 13.6948 13.9145C13.8802 13.7291 13.9854 13.4783 13.9877 13.2161C13.99 12.9539 13.8892 12.7013 13.707 12.5127L11 9.80573V5.21973C11 4.95451 10.8946 4.70016 10.7071 4.51262C10.5196 4.32508 10.2652 4.21973 10 4.21973Z" fill="white"/>
</svg>
