<svg width="13" height="12" viewBox="0 0 13 12" fill="none" xmlns="http://www.w3.org/2000/svg">
<g id="Layer 59">
<path id="Vector" d="M12.2829 10.2899C12.4712 10.4782 12.577 10.7336 12.577 10.9999C12.577 11.2662 12.4712 11.5216 12.2829 11.7099C12.0946 11.8982 11.8392 12.004 11.5729 12.004C11.3066 12.004 11.0512 11.8982 10.8629 11.7099L6.57294 7.40994L2.28294 11.7099C2.09464 11.8982 1.83924 12.004 1.57294 12.004C1.30664 12.004 1.05124 11.8982 0.862939 11.7099C0.674636 11.5216 0.568848 11.2662 0.568848 10.9999C0.568848 10.7336 0.674636 10.4782 0.862939 10.2899L5.16294 5.99994L0.862939 1.70994C0.674636 1.52164 0.568848 1.26624 0.568848 0.999941C0.568848 0.73364 0.674636 0.478245 0.862939 0.289941C1.05124 0.101638 1.30664 -0.00415039 1.57294 -0.00415039C1.83924 -0.00415039 2.09464 0.101638 2.28294 0.289941L6.57294 4.58994L10.8629 0.289941C11.0512 0.101638 11.3066 -0.00415039 11.5729 -0.00415039C11.8392 -0.00415039 12.0946 0.101638 12.2829 0.289941C12.4712 0.478245 12.577 0.73364 12.577 0.999941C12.577 1.26624 12.4712 1.52164 12.2829 1.70994L7.98294 5.99994L12.2829 10.2899Z" fill="#939393"/>
</g>
</svg>
