<svg width="12" height="12" viewBox="0 0 12 12" fill="none" xmlns="http://www.w3.org/2000/svg">
<g id="Layer 59">
<path id="Vector" d="M11.7099 10.29C11.8982 10.4783 12.004 10.7337 12.004 11C12.004 11.2663 11.8982 11.5217 11.7099 11.71C11.5216 11.8983 11.2662 12.0041 10.9999 12.0041C10.7336 12.0041 10.4782 11.8983 10.2899 11.71L5.99994 7.41L1.70994 11.71C1.52164 11.8983 1.26624 12.0041 0.999941 12.0041C0.73364 12.0041 0.478245 11.8983 0.289941 11.71C0.101638 11.5217 -0.00415039 11.2663 -0.00415039 11C-0.00415039 10.7337 0.101638 10.4783 0.289941 10.29L4.58994 6L0.289941 1.71C0.101638 1.5217 -0.00415039 1.2663 -0.00415039 1C-0.00415039 0.733701 0.101638 0.478306 0.289941 0.290002C0.478245 0.101699 0.73364 -0.00408935 0.999941 -0.00408936C1.26624 -0.00408936 1.52164 0.101699 1.70994 0.290002L5.99994 4.59L10.2899 0.290002C10.4782 0.101699 10.7336 -0.00408936 10.9999 -0.00408936C11.2662 -0.00408936 11.5216 0.101699 11.7099 0.290002C11.8982 0.478306 12.004 0.733701 12.004 1C12.004 1.2663 11.8982 1.5217 11.7099 1.71L7.40994 6L11.7099 10.29Z" fill="#222221"/>
</g>
</svg>
