<svg width="25" height="24" viewBox="0 0 25 24" fill="none" xmlns="http://www.w3.org/2000/svg">
    <path d="M18.2829 16.2899C18.4712 16.4782 18.577 16.7336 18.577 16.9999C18.577 17.2662 18.4712 17.5216 18.2829 17.7099C18.0946 17.8982 17.8392 18.004 17.5729 18.004C17.3066 18.004 17.0512 17.8982 16.8629 17.7099L12.5729 13.4099L8.28294 17.7099C8.09464 17.8982 7.83924 18.004 7.57294 18.004C7.30664 18.004 7.05124 17.8982 6.86294 17.7099C6.67464 17.5216 6.56885 17.2662 6.56885 16.9999C6.56885 16.7336 6.67464 16.4782 6.86294 16.2899L11.1629 11.9999L6.86294 7.70994C6.67464 7.52164 6.56885 7.26624 6.56885 6.99994C6.56885 6.73364 6.67464 6.47825 6.86294 6.28994C7.05124 6.10164 7.30664 5.99585 7.57294 5.99585C7.83924 5.99585 8.09464 6.10164 8.28294 6.28994L12.5729 10.5899L16.8629 6.28994C17.0512 6.10164 17.3066 5.99585 17.5729 5.99585C17.8392 5.99585 18.0946 6.10164 18.2829 6.28994C18.4712 6.47825 18.577 6.73364 18.577 6.99994C18.577 7.26624 18.4712 7.52164 18.2829 7.70994L13.9829 11.9999L18.2829 16.2899Z" fill="#fff"/>
</svg>
