<svg width="24" height="24" viewBox="0 0 24 24" fill="none" xmlns="http://www.w3.org/2000/svg">
<path fill-rule="evenodd" clip-rule="evenodd" d="M12 24C18.6274 24 24 18.6274 24 12C24 5.37258 18.6274 0 12 0C5.37258 0 0 5.37258 0 12C0 18.6274 5.37258 24 12 24ZM14.0161 5.74852C13.7072 5.73975 13.3494 5.73599 12.6445 5.73411L11.3562 5.73474C10.8992 5.73321 10.4421 5.73802 9.98525 5.74915L9.86369 5.75291C9.72333 5.75792 9.58423 5.76419 9.41756 5.77171C8.75024 5.80304 8.29596 5.9083 7.8962 6.06307C7.47836 6.22034 7.09987 6.46689 6.78714 6.78553C6.46741 7.09821 6.22015 7.47722 6.0628 7.89584C5.90804 8.2956 5.80277 8.74988 5.77144 9.4172L5.77113 9.42416C5.76375 9.58774 5.75759 9.72431 5.75264 9.86333L5.74826 9.98488C5.73732 10.4418 5.73272 10.8988 5.73447 11.3559V12.6441C5.73337 13.1012 5.73859 13.5582 5.75014 14.0151L5.75327 14.1367C5.75882 14.2854 5.76509 14.4341 5.77207 14.5828C5.8034 15.2501 5.90866 15.705 6.06343 16.1041C6.22085 16.5224 6.46761 16.9013 6.78651 17.2145C7.09932 17.5333 7.47806 17.7799 7.8962 17.9369C8.29596 18.0917 8.75087 18.1969 9.41756 18.2283C9.56623 18.2356 9.71494 18.2421 9.86369 18.2477L9.98525 18.2515C10.4424 18.2626 10.8996 18.2674 11.3568 18.2659H12.1771L12.6445 18.2652C13.3494 18.264 13.7072 18.2596 14.0161 18.2508L14.1376 18.2471C14.2864 18.2415 14.4351 18.2353 14.5838 18.2283C15.2505 18.1969 15.7054 18.0917 16.1045 17.9369C16.5226 17.7795 16.9015 17.533 17.2148 17.2145C17.5338 16.9015 17.7804 16.5226 17.9373 16.1041C18.0914 15.7044 18.1979 15.2501 18.2293 14.5828L18.2296 14.5753C18.237 14.412 18.2431 14.2755 18.2481 14.1367L18.2518 14.0151C18.263 13.5582 18.2678 13.1012 18.2662 12.6441V11.8233L18.2656 11.3559C18.2644 10.6509 18.2606 10.2932 18.2512 9.98488L18.2474 9.86333C18.2425 9.72427 18.2363 9.58764 18.2289 9.424L18.2286 9.4172C18.1973 8.74988 18.092 8.29498 17.9373 7.89584C17.78 7.47765 17.5334 7.09875 17.2148 6.78553C16.8664 6.43777 16.5181 6.22222 16.1045 6.06307C15.7054 5.9083 15.2505 5.80304 14.5838 5.77171L14.5685 5.77102C14.408 5.76381 14.2737 5.75777 14.1376 5.75291L14.0161 5.74852ZM9.78503 9.78467C10.3726 9.19713 11.1694 8.86705 12.0004 8.86705C12.8313 8.86705 13.6281 9.19713 14.2157 9.78467C14.8032 10.3722 15.1333 11.1691 15.1333 12C15.1333 12.8309 14.8032 13.6278 14.2157 14.2153C13.6281 14.8029 12.8313 15.1329 12.0004 15.1329C11.1694 15.1329 10.3726 14.8029 9.78503 14.2153C9.19749 13.6278 8.86741 12.8309 8.86741 12C8.86741 11.1691 9.19749 10.3722 9.78503 9.78467ZM12.7197 10.2632C12.4918 10.1688 12.2476 10.1203 12.001 10.1202C11.5024 10.1202 11.0243 10.3183 10.6718 10.6708C10.3193 11.0233 10.1212 11.5014 10.1212 12C10.1212 12.4985 10.3193 12.9767 10.6718 13.3292C11.0243 13.6817 11.5024 13.8798 12.001 13.8798C12.2478 13.8797 12.4923 13.8311 12.7203 13.7365C12.9484 13.642 13.1556 13.5035 13.3301 13.329C13.5046 13.1544 13.643 12.9471 13.7375 12.7191C13.8319 12.491 13.8805 12.2465 13.8804 11.9997C13.8804 11.7528 13.8317 11.5084 13.7372 11.2803C13.6427 11.0523 13.5042 10.8451 13.3296 10.6706C13.1551 10.4961 12.9478 10.3576 12.7197 10.2632ZM14.7367 8.15657C14.8836 8.00969 15.0828 7.92717 15.2906 7.92717C15.4983 7.92717 15.6975 8.00969 15.8444 8.15657C15.9913 8.30346 16.0738 8.50268 16.0738 8.7104C16.0738 8.91813 15.9913 9.11735 15.8444 9.26423C15.6975 9.41112 15.4983 9.49364 15.2906 9.49364C15.0828 9.49364 14.8836 9.41112 14.7367 9.26423C14.5899 9.11735 14.5073 8.91813 14.5073 8.7104C14.5073 8.50268 14.5899 8.30346 14.7367 8.15657Z" fill="#151515"/>
</svg>
