<svg width="25" height="25" viewBox="0 0 25 25" fill="none" xmlns="http://www.w3.org/2000/svg">
<path id="Subtract" fill-rule="evenodd" clip-rule="evenodd" d="M12.3623 24.5C18.9897 24.5 24.3623 19.1274 24.3623 12.5C24.3623 5.87258 18.9897 0.5 12.3623 0.5C5.73489 0.5 0.362305 5.87258 0.362305 12.5C0.362305 19.1274 5.73489 24.5 12.3623 24.5ZM14.3786 6.2481C14.0697 6.23933 13.7119 6.23557 13.007 6.23369L11.7188 6.23431C11.2617 6.23279 10.8047 6.23759 10.3478 6.24873L10.2262 6.25249C10.0859 6.2575 9.94678 6.26376 9.7801 6.27128C9.11279 6.30261 8.65851 6.40788 8.25875 6.56265C7.8409 6.71991 7.46241 6.96647 7.14969 7.2851C6.82995 7.59778 6.5827 7.9768 6.42535 8.39542C6.27058 8.79518 6.16532 9.24946 6.13399 9.91677L6.13367 9.92373C6.12629 10.0873 6.12013 10.2239 6.11519 10.3629L6.1108 10.4845C6.09986 10.9414 6.09527 11.3984 6.09702 11.8554V13.1437C6.09591 13.6007 6.10114 14.0578 6.11268 14.5147L6.11582 14.6362C6.12137 14.785 6.12763 14.9337 6.13461 15.0824C6.16594 15.7497 6.27121 16.2046 6.42598 16.6037C6.58339 17.022 6.83015 17.4009 7.14906 17.714C7.46186 18.0329 7.84061 18.2794 8.25875 18.4365C8.65851 18.5913 9.11341 18.6965 9.7801 18.7279C9.92877 18.7352 10.0775 18.7416 10.2262 18.7473L10.3478 18.751C10.8049 18.7622 11.2621 18.767 11.7194 18.7654H12.5396L13.007 18.7648C13.7119 18.7636 14.0697 18.7592 14.3786 18.7504L14.5002 18.7467C14.6489 18.7411 14.7976 18.7349 14.9463 18.7279C15.613 18.6965 16.0679 18.5913 16.4671 18.4365C16.8852 18.2791 17.264 18.0325 17.5774 17.714C17.8964 17.4011 18.143 17.0221 18.2998 16.6037C18.454 16.204 18.5605 15.7497 18.5918 15.0824C18.5993 14.9157 18.6056 14.7772 18.6106 14.6362L18.6144 14.5147C18.6255 14.0578 18.6303 13.6007 18.6288 13.1437V12.3229L18.6282 11.8554C18.6269 11.1505 18.6231 10.7927 18.6137 10.4845L18.61 10.3629C18.605 10.2238 18.5989 10.0872 18.5915 9.92356L18.5912 9.91677C18.5599 9.24946 18.4546 8.79455 18.2998 8.39542C18.1425 7.97722 17.896 7.59833 17.5774 7.2851C17.229 6.93735 16.8806 6.7218 16.4671 6.56265C16.0679 6.40788 15.613 6.30261 14.9463 6.27128L14.9311 6.2706C14.7706 6.26338 14.6363 6.25735 14.5002 6.25249L14.3786 6.2481ZM10.1476 10.2842C10.7351 9.6967 11.532 9.36663 12.3629 9.36663C13.1938 9.36663 13.9907 9.6967 14.5782 10.2842C15.1658 10.8718 15.4958 11.6687 15.4958 12.4996C15.4958 13.3305 15.1658 14.1274 14.5782 14.7149C13.9907 15.3024 13.1938 15.6325 12.3629 15.6325C11.532 15.6325 10.7351 15.3024 10.1476 14.7149C9.56003 14.1274 9.22996 13.3305 9.22996 12.4996C9.22996 11.6687 9.56003 10.8718 10.1476 10.2842ZM13.0823 10.7628C12.8544 10.6684 12.6102 10.6198 12.3635 10.6198C11.865 10.6198 11.3869 10.8179 11.0343 11.1704C10.6818 11.5229 10.4838 12.001 10.4838 12.4996C10.4838 12.9981 10.6818 13.4762 11.0343 13.8288C11.3869 14.1813 11.865 14.3793 12.3635 14.3793C12.6104 14.3793 12.8548 14.3306 13.0829 14.2361C13.3109 14.1416 13.5181 14.0031 13.6926 13.8285C13.8672 13.654 14.0056 13.4467 14.1 13.2186C14.1944 12.9906 14.243 12.7461 14.243 12.4993C14.2429 12.2524 14.1943 12.008 14.0998 11.7799C14.0053 11.5519 13.8668 11.3447 13.6922 11.1702C13.5176 10.9956 13.3104 10.8572 13.0823 10.7628ZM15.0993 8.65615C15.2462 8.50927 15.4454 8.42675 15.6531 8.42675C15.8608 8.42675 16.0601 8.50927 16.2069 8.65615C16.3538 8.80304 16.4363 9.00225 16.4363 9.20998C16.4363 9.41771 16.3538 9.61693 16.2069 9.76381C16.0601 9.9107 15.8608 9.99322 15.6531 9.99322C15.4454 9.99322 15.2462 9.9107 15.0993 9.76381C14.9524 9.61693 14.8699 9.41771 14.8699 9.20998C14.8699 9.00225 14.9524 8.80304 15.0993 8.65615Z" fill="white"/>
</svg>
