<svg width="20" height="21" viewBox="0 0 20 21" fill="none" xmlns="http://www.w3.org/2000/svg">
<path id="Vector" d="M19.9884 15.3277C19.81 16.6827 19.1446 17.9265 18.1162 18.8268C17.0879 19.727 15.767 20.2222 14.4003 20.2197C6.46012 20.2197 9.0488e-06 13.7597 9.0488e-06 5.81958C-0.00244097 4.45286 0.492705 3.13197 1.39297 2.10364C2.29323 1.0753 3.53704 0.409833 4.89209 0.231524C5.23475 0.189685 5.58175 0.259787 5.8813 0.431365C6.18084 0.602943 6.41686 0.866795 6.55412 1.18353L8.66616 5.89858V5.91058C8.77125 6.15304 8.81465 6.41774 8.79249 6.68106C8.77032 6.94438 8.68329 7.19811 8.53916 7.41959C8.52116 7.44659 8.50216 7.47159 8.48215 7.49659L6.40012 9.96462C7.14913 11.4866 8.74116 13.0646 10.2832 13.8157L12.7172 11.7446C12.7411 11.7245 12.7662 11.7058 12.7922 11.6886C13.0135 11.541 13.2681 11.4509 13.533 11.4265C13.7979 11.4021 14.0647 11.444 14.3093 11.5486L14.3223 11.5546L19.0333 13.6657C19.3506 13.8024 19.6151 14.0382 19.7873 14.3378C19.9594 14.6374 20.03 14.9847 19.9884 15.3277Z" fill="white"/>
</svg>
