<svg width="15" height="21" viewBox="0 0 15 21" fill="none" xmlns="http://www.w3.org/2000/svg">
<path id="Vector" d="M7.05882 9.71973C6.39021 9.71973 5.74898 9.45634 5.2762 8.98749C4.80342 8.51865 4.53782 7.88277 4.53782 7.21973C4.53782 6.55669 4.80342 5.9208 5.2762 5.45196C5.74898 4.98312 6.39021 4.71973 7.05882 4.71973C7.72744 4.71973 8.36866 4.98312 8.84145 5.45196C9.31423 5.9208 9.57983 6.55669 9.57983 7.21973C9.57983 7.54803 9.51462 7.87312 9.38793 8.17644C9.26124 8.47975 9.07554 8.75535 8.84145 8.98749C8.60735 9.21964 8.32943 9.40379 8.02357 9.52943C7.71771 9.65506 7.38989 9.71973 7.05882 9.71973ZM7.05882 0.219727C5.18671 0.219727 3.39127 0.957224 2.06748 2.26998C0.743695 3.58273 0 5.36321 0 7.21973C0 12.4697 7.05882 20.2197 7.05882 20.2197C7.05882 20.2197 14.1176 12.4697 14.1176 7.21973C14.1176 5.36321 13.374 3.58273 12.0502 2.26998C10.7264 0.957224 8.93094 0.219727 7.05882 0.219727Z" fill="white"/>
</svg>
