<svg width="25" height="25" viewBox="0 0 25 25" fill="none" xmlns="http://www.w3.org/2000/svg">
<path id="Vector" d="M12.7876 0.5C6.1636 0.5 0.787598 5.876 0.787598 12.5C0.787598 19.124 6.1636 24.5 12.7876 24.5C19.4116 24.5 24.7876 19.124 24.7876 12.5C24.7876 5.876 19.4116 0.5 12.7876 0.5ZM18.3556 8.66C18.1756 10.556 17.3956 15.164 16.9996 17.288C16.8316 18.188 16.4956 18.488 16.1836 18.524C15.4876 18.584 14.9596 18.068 14.2876 17.624C13.2316 16.928 12.6316 16.496 11.6116 15.824C10.4236 15.044 11.1916 14.612 11.8756 13.916C12.0556 13.736 15.1276 10.94 15.1876 10.688C15.1959 10.6498 15.1948 10.6102 15.1844 10.5726C15.1739 10.5349 15.1544 10.5004 15.1276 10.472C15.0556 10.412 14.9596 10.436 14.8756 10.448C14.7676 10.472 13.0876 11.588 9.8116 13.796C9.3316 14.12 8.8996 14.288 8.5156 14.276C8.0836 14.264 7.2676 14.036 6.6556 13.832C5.8996 13.592 5.3116 13.46 5.3596 13.04C5.3836 12.824 5.6836 12.608 6.2476 12.38C9.7516 10.856 12.0796 9.848 13.2436 9.368C16.5796 7.976 17.2636 7.736 17.7196 7.736C17.8156 7.736 18.0436 7.76 18.1876 7.88C18.3076 7.976 18.3436 8.108 18.3556 8.204C18.3436 8.276 18.3676 8.492 18.3556 8.66Z" fill="white"/>
</svg>
