<svg width="25" height="24" viewBox="0 0 25 24" fill="none" xmlns="http://www.w3.org/2000/svg">
<path id="Vector" d="M12.0601 0C5.43606 0 0.0600586 5.376 0.0600586 12C0.0600586 18.624 5.43606 24 12.0601 24C18.6841 24 24.0601 18.624 24.0601 12C24.0601 5.376 18.6841 0 12.0601 0ZM17.6281 8.16C17.4481 10.056 16.6681 14.664 16.2721 16.788C16.1041 17.688 15.7681 17.988 15.4561 18.024C14.7601 18.084 14.2321 17.568 13.5601 17.124C12.5041 16.428 11.9041 15.996 10.8841 15.324C9.69606 14.544 10.4641 14.112 11.1481 13.416C11.3281 13.236 14.4001 10.44 14.4601 10.188C14.4684 10.1498 14.4673 10.1102 14.4568 10.0726C14.4464 10.0349 14.4269 10.0004 14.4001 9.972C14.3281 9.912 14.2321 9.936 14.1481 9.948C14.0401 9.972 12.3601 11.088 9.08406 13.296C8.60406 13.62 8.17206 13.788 7.78806 13.776C7.35606 13.764 6.54006 13.536 5.92806 13.332C5.17206 13.092 4.58406 12.96 4.63206 12.54C4.65606 12.324 4.95606 12.108 5.52006 11.88C9.02406 10.356 11.3521 9.348 12.5161 8.868C15.8521 7.476 16.5361 7.236 16.9921 7.236C17.0881 7.236 17.3161 7.26 17.4601 7.38C17.5801 7.476 17.6161 7.608 17.6281 7.704C17.6161 7.776 17.6401 7.992 17.6281 8.16Z" fill="#151515"/>
</svg>
