<svg width="24" height="25" viewBox="0 0 24 25" fill="none" xmlns="http://www.w3.org/2000/svg">
<path id="Subtract" fill-rule="evenodd" clip-rule="evenodd" d="M12 24.5C18.6274 24.5 24 19.1274 24 12.5C24 5.87258 18.6274 0.5 12 0.5C5.37258 0.5 0 5.87258 0 12.5C0 19.1274 5.37258 24.5 12 24.5ZM14.6697 5.71301C14.6695 6.4953 14.9535 7.25101 15.469 7.83946C16.4945 9.02333 17.9122 8.95547 17.9122 8.95547V11.2855C16.7489 11.2875 15.6145 10.9234 14.6697 10.2449V14.9879C14.6697 17.3632 12.7468 19.2861 10.3791 19.2861C8.1697 19.2861 6.08849 17.499 6.08849 14.9879C6.08849 12.4091 8.36575 10.3882 10.9673 10.735V13.1179C9.67782 12.7182 8.42608 13.691 8.42608 14.9879C8.42608 16.0738 9.31587 16.9485 10.3866 16.9485C10.8929 16.9484 11.3795 16.7519 11.7438 16.4003C12.1081 16.0486 12.3217 15.5693 12.3396 15.0634V5.71301H14.6697Z" fill="white"/>
</svg>
