<svg width="25" height="24" viewBox="0 0 25 24" fill="none" xmlns="http://www.w3.org/2000/svg">
<path id="Subtract" fill-rule="evenodd" clip-rule="evenodd" d="M12.0601 24C18.6875 24 24.0601 18.6274 24.0601 12C24.0601 5.37258 18.6875 0 12.0601 0C5.43264 0 0.0600586 5.37258 0.0600586 12C0.0600586 18.6274 5.43264 24 12.0601 24ZM14.7298 5.21301C14.7295 5.9953 15.0136 6.75101 15.5291 7.33946C16.5546 8.52333 17.9722 8.45547 17.9722 8.45547V10.7855C16.809 10.7875 15.6746 10.4234 14.7298 9.74491V14.4879C14.7298 16.8632 12.8069 18.7861 10.4392 18.7861C8.22976 18.7861 6.14855 16.999 6.14855 14.4879C6.14855 11.9091 8.42581 9.88818 11.0273 10.235V12.6179C9.73788 12.2182 8.48614 13.191 8.48614 14.4879C8.48614 15.5738 9.37593 16.4485 10.4467 16.4485C10.953 16.4484 11.4395 16.2519 11.8038 15.9003C12.1681 15.5486 12.3817 15.0693 12.3997 14.5634V5.21301H14.7298Z" fill="#151515"/>
</svg>
